{"title":"The Missing [2003] - DVDRip - XviD (AC-3, 5.1)","uid":4779653,"size":839469056,"categoryP":"video","categoryS":"movies","magnet":"?xt=urn:btih:c2a1a50a3f211d96995e927941635adcfacb3389&amp;dn=The+Missing+%5B2003%5D+-+DVDRip+-+XviD+%28AC-3%2C+5.1%29&amp;tr=udp%3A%2F%2Ftracker.openbittorrent.com%3A80&amp;tr=udp%3A%2F%2Fopen.demonii.com%3A1337&amp;tr=udp%3A%2F%2Ftracker.coppersurfer.tk%3A6969&amp;tr=udp%3A%2F%2Fexodus.desync.com%3A6969","seeders":5,"leechers":1,"uploader":"akhiugo","files":-1,"time":1237334090,"description":"In 19th-century New Mexico, a father (Tommy Lee Jones) comes back home, hoping to reconcile with his adult daughter Maggie (Cate Blanchett). Maggie's daughter is kidnapped, forcing father and estranged daughter to work together to get her back.\n &lt;a href=&quot;\nhttp://www.imdb.com/title/tt0338188/&quot; rel=&quot;nofollow&quot; target=&quot;_NEW&quot;&gt;\nhttp://www.imdb.com/title/tt0338188/&lt;/a&gt;\n\n\n--------------------------------------------------------------------------------\n\n\nGeneral\nComplete name                    : The Missing.avi\nFormat                           : AVI\nFormat/Info                      : Audio Video Interleave\nFile size                        : 801 MiB\nDuration                         : 2h 11mn\nOverall bit rate                 : 852 Kbps\nWriting application              : VirtualDubMod 1.5.4.1 (build 2178/release)\nWriting library                  : VirtualDubMod build 2178/release\n\nVideo\nFormat                           : MPEG-4 Visual\nFormat profile                   : Streaming Video@L1\nFormat settings, BVOP            : Yes\nFormat settings, QPel            : No\nFormat settings, GMC             : No warppoints\nFormat settings, Matrix          : Custom\nCodec ID                         : XVID\nCodec ID/Hint                    : XviD\nDuration                         : 2h 11mn\nBit rate                         : 396 Kbps\nWidth                            : 544 pixels\nHeight                           : 240 pixels\nDisplay aspect ratio             : 2.25\nFrame rate                       : 29.970 fps\nResolution                       : 24 bits\nColorimetry                      : 4:2:0\nScan type                        : Progressive\nBits/(Pixel*Frame)               : 0.101\nStream size                      : 372 MiB (46%)\nWriting library                  : XviD 1.2.1 (UTC 2008-12-04)\n\nAudio\nFormat                           : AC-3\nFormat/Info                      : Audio Coding 3\nCodec ID                         : 2000\nDuration                         : 2h 11mn\nBit rate mode                    : Constant\nBit rate                         : 448 Kbps\nChannel(s)                       : 6 channels\nChannel positions                : Front: L C R, Surround: L R, LFE\nSampling rate                    : 48.0 KHz\nStream size                      : 421 MiB (53%)\nAlignment                        : Aligned on interleaves\nInterleave, duration             : 96 ms (2.88 video frames)\nInterleave, preload duration     : 96 ms\nLanguage                         : English\n\n\n\nPlease help your fellow pirates by seeding after download!","torrent":{"xt":"urn:btih:c2a1a50a3f211d96995e927941635adcfacb3389","amp;dn":"The+Missing+%5B2003%5D+-+DVDRip+-+XviD+%28AC-3%2C+5.1%29","amp;tr":["udp%3A%2F%2Ftracker.openbittorrent.com%3A80","udp%3A%2F%2Fopen.demonii.com%3A1337","udp%3A%2F%2Ftracker.coppersurfer.tk%3A6969","udp%3A%2F%2Fexodus.desync.com%3A6969"],"infoHash":"c2a1a50a3f211d96995e927941635adcfacb3389","infoHashBuffer":{"type":"Buffer","data":[194,161,165,10,63,33,29,150,153,94,146,121,65,99,90,220,250,203,51,137]},"announce":[],"urlList":[]}}